<svg width="14" height="10" viewBox="0 0 14 10" fill="none" xmlns="http://www.w3.org/2000/svg">
    <path d="M1.60226 5.26797C1.24818 4.93536 0.691503 4.95275 0.358884 5.30683C0.0262641 5.66091 0.0436603 6.21759 0.397739 6.55021L1.60226 5.26797ZM4.29032 9L3.68806 9.64112C4.02383 9.95653 4.54608 9.95946 4.88536 9.64783L4.29032 9ZM13.595 1.64782C13.9528 1.31919 13.9765 0.762745 13.6478 0.404961C13.3192 0.0471773 12.7627 0.0235443 12.405 0.352175L13.595 1.64782ZM0.397739 6.55021L3.68806 9.64112L4.89258 8.35888L1.60226 5.26797L0.397739 6.55021ZM4.88536 9.64783L13.595 1.64782L12.405 0.352175L3.69528 8.35218L4.88536 9.64783Z"
          fill="#FFF"/>
</svg>
