<svg width="18" height="10" viewBox="0 0 18 10" fill="none" xmlns="http://www.w3.org/2000/svg">
    <path d="M1.57033 5.22719C1.26752 4.94456 0.792928 4.96093 0.510302 5.26374C0.227677 5.56655 0.244042 6.04114 0.546855 6.32377L1.57033 5.22719ZM4.01345 8.53334L3.50171 9.08164C3.78987 9.35058 4.23703 9.35058 4.52519 9.08164L4.01345 8.53334ZM12.2817 1.84224C12.5845 1.55961 12.6009 1.08502 12.3182 0.782207C12.0356 0.479394 11.561 0.463028 11.2582 0.745654L12.2817 1.84224ZM9.18445 8.70571L8.67271 9.254C8.96087 9.52295 9.40803 9.52295 9.69619 9.254L9.18445 8.70571ZM17.4527 2.0146C17.7555 1.73198 17.7719 1.25739 17.4892 0.954573C17.2066 0.65176 16.732 0.635395 16.4292 0.91802L17.4527 2.0146ZM8.7728 7.29559C8.46998 7.01296 7.99539 7.02933 7.71277 7.33214C7.43014 7.63495 7.44651 8.10954 7.74932 8.39217L8.7728 7.29559ZM0.546855 6.32377L3.50171 9.08164L4.52519 7.98505L1.57033 5.22719L0.546855 6.32377ZM4.52519 9.08164L12.2817 1.84224L11.2582 0.745654L3.50171 7.98505L4.52519 9.08164ZM9.69619 9.254L17.4527 2.0146L16.4292 0.91802L8.67271 8.15742L9.69619 9.254ZM9.69619 8.15742L8.7728 7.29559L7.74932 8.39217L8.67271 9.254L9.69619 8.15742Z"
          fill="#FFF"/>
</svg>
