<svg width="24" height="24" viewBox="0 0 24 24" fill="none" xmlns="http://www.w3.org/2000/svg">
    <path d="M14.5976 18.4165C15.0119 18.4165 15.3476 18.0807 15.3476 17.6665C15.3476 17.2523 15.0119 16.9165 14.5976 16.9165V18.4165ZM14.1873 11.6665C14.1873 12.6903 13.3573 13.5203 12.3335 13.5203V15.0203C14.1857 15.0203 15.6873 13.5187 15.6873 11.6665H14.1873ZM12.3335 13.5203C11.3097 13.5203 10.4797 12.6903 10.4797 11.6665H8.97972C8.97972 13.5187 10.4813 15.0203 12.3335 15.0203V13.5203ZM10.4797 11.6665C10.4797 10.6427 11.3097 9.81273 12.3335 9.81273V8.31273C10.4813 8.31273 8.97972 9.81427 8.97972 11.6665H10.4797ZM12.3335 9.81273C13.3573 9.81273 14.1873 10.6427 14.1873 11.6665H15.6873C15.6873 9.81427 14.1857 8.31273 12.3335 8.31273V9.81273ZM12.3335 16.9165C9.434 16.9165 7.0835 14.566 7.0835 11.6665H5.5835C5.5835 15.3944 8.60557 18.4165 12.3335 18.4165V16.9165ZM7.0835 11.6665C7.0835 8.76701 9.434 6.4165 12.3335 6.4165V4.9165C8.60557 4.9165 5.5835 7.93858 5.5835 11.6665H7.0835ZM12.3335 6.4165C15.233 6.4165 17.5835 8.76701 17.5835 11.6665H19.0835C19.0835 7.93858 16.0614 4.9165 12.3335 4.9165V6.4165ZM12.3335 18.4165H14.5976V16.9165H12.3335V18.4165ZM17.5835 11.6665C17.5835 12.0516 17.5077 12.6173 17.3099 13.0568C17.1147 13.4908 16.894 13.6335 16.6354 13.6335V15.1335C17.7353 15.1335 18.3637 14.3705 18.6778 13.6724C18.9895 12.9798 19.0835 12.1871 19.0835 11.6665H17.5835ZM16.6354 13.6335C16.418 13.6335 16.2865 13.584 16.2007 13.5291C16.1122 13.4726 16.0248 13.38 15.945 13.2235C15.7729 12.8859 15.6873 12.3528 15.6873 11.6665H14.1873C14.1873 12.4182 14.2715 13.2436 14.6088 13.905C14.7837 14.248 15.0359 14.565 15.3932 14.7932C15.7531 15.0231 16.1735 15.1335 16.6354 15.1335V13.6335Z"
          fill="white"/>
</svg>
