<svg width="9" height="12" viewBox="0 0 9 12" fill="none" xmlns="http://www.w3.org/2000/svg">
    <path fill-rule="evenodd" clip-rule="evenodd"
          d="M0 4.43405C0 4.154 0.212147 3.92672 0.472488 3.92672H1.28291L6.14235 9.43855V10.7908C6.14235 11.4823 5.66986 11.742 5.19737 11.2347L2.0969 8.33241H0.472488C0.212147 8.33241 0 8.10411 0 7.82509V4.43405Z"
          fill="#FFF"/>
    <path d="M0.563375 0.501791C0.476909 0.518593 0.396519 0.560952 0.331238 0.624109C0.265958 0.687266 0.218373 0.768717 0.193832 0.859312C0.16929 0.949907 0.168763 1.04606 0.192311 1.13695C0.215858 1.22785 0.262547 1.3099 0.327131 1.37388L8.16049 9.78472C8.20219 9.83994 8.25422 9.88513 8.31323 9.91737C8.37223 9.94961 8.43689 9.96817 8.503 9.97186C8.56912 9.97555 8.63522 9.96428 8.69702 9.93877C8.75882 9.91327 8.81493 9.87411 8.86173 9.82382C8.90853 9.77354 8.94496 9.71326 8.96867 9.64689C8.99238 9.58052 9.00283 9.50954 8.99935 9.43855C8.99587 9.36756 8.97853 9.29815 8.94846 9.23482C8.9184 9.17149 8.87627 9.11565 8.82481 9.07092L6.94197 7.04978V1.51451C6.94197 0.53368 6.03045 0.543771 5.36508 1.15025L3.22244 3.05604L0.991922 0.660075C0.943153 0.6043 0.883266 0.561091 0.816745 0.53368C0.750223 0.50627 0.67879 0.495368 0.607789 0.501791C0.592993 0.501044 0.578172 0.501044 0.563375 0.501791Z"
          fill="#FFF"/>
</svg>
