<svg width="23" height="23" viewBox="0 0 23 23" fill="none" xmlns="http://www.w3.org/2000/svg">
    <path fill-rule="evenodd" clip-rule="evenodd"
          d="M11.5 23C17.8513 23 23 17.8513 23 11.5C23 5.14873 17.8513 0 11.5 0C5.14873 0 0 5.14873 0 11.5C0 17.8513 5.14873 23 11.5 23ZM11.5 22C17.299 22 22 17.299 22 11.5C22 5.70101 17.299 1 11.5 1C5.70104 1 1.00003 5.70101 1.00003 11.5C1.00003 17.299 5.70104 22 11.5 22Z"
          fill="#FFF"/>
    <path fill-rule="evenodd" clip-rule="evenodd"
          d="M11.5281 14.4806C11.2913 14.2351 10.9102 14.2006 10.6332 14.3997L7.77869 16.4511C7.74852 16.4728 7.72068 16.4975 7.69217 16.5213C7.64367 16.5618 7.58921 16.5949 7.53061 16.6191C7.4548 16.6505 7.37353 16.6667 7.29147 16.6667C7.2094 16.6667 7.12814 16.6505 7.05232 16.6191C6.9765 16.5877 6.90761 16.5417 6.84958 16.4837C6.79155 16.4256 6.74552 16.3567 6.71411 16.2809C6.6827 16.2051 6.66654 16.1238 6.66654 16.0418C6.66654 15.9597 6.6827 15.8784 6.71411 15.8026C6.74552 15.7268 6.79155 15.6579 6.84958 15.5999L9.05382 12.8912C9.27818 12.6155 9.255 12.2141 9.0004 11.9661L7.56513 10.5678C7.29112 10.3008 7.28736 9.85753 7.60512 9.6445C8.21718 9.23417 9.19816 8.82095 10.6155 8.85614C10.814 8.86107 11.0089 8.79032 11.1492 8.64998L13.2498 6.54987L13.6475 6.15219C13.9156 5.88406 14.3504 5.88406 14.6185 6.15219L15.0161 6.54987L16.7831 8.31623L17.1811 8.71425C17.4492 8.98237 17.4492 9.41707 17.1811 9.68519L16.7831 10.0832L14.7032 12.1631C14.5513 12.315 14.4818 12.5299 14.5001 12.7439C14.6285 14.2497 14.1637 15.1736 13.7176 15.7483C13.4823 16.0516 13.0313 16.0395 12.7648 15.7631L11.5281 14.4806Z"
          fill="#FFF"/>
</svg>
