<svg width="10" height="14" viewBox="0 0 10 14" fill="none" xmlns="http://www.w3.org/2000/svg">
    <path fill-rule="evenodd" clip-rule="evenodd"
          d="M10 7.55714V12.3857C10 13.0011 9.53685 13.5 8.96552 13.5H1.03448C0.463154 13.5 0 13.0011 0 12.3857V7.55714C0 6.94174 0.463154 6.44286 1.03448 6.44286H1.55172V4.21429C1.55172 2.97619 2.24138 0.5 5 0.5C7.75862 0.5 8.44828 2.97619 8.44828 4.21429V6.44286H8.96552C9.53685 6.44286 10 6.94174 10 7.55714ZM7.06897 4.21429V6.44286H2.93103V4.21429C2.93103 3.47143 3.34483 1.98571 5 1.98571C6.65517 1.98571 7.06897 3.47143 7.06897 4.21429Z"
          fill="#47A938"/>
</svg>
