<svg width="13" height="14" viewBox="0 0 13 14" fill="none" xmlns="http://www.w3.org/2000/svg">
    <path fill-rule="evenodd" clip-rule="evenodd"
          d="M8.38264 0.615993C8.80895 0.412288 9.35083 0.647722 9.51684 1.09047C9.72866 1.65541 10.0757 2.36779 10.605 2.89769C11.1343 3.42759 11.8459 3.775 12.4102 3.98706C12.8524 4.15326 13.0876 4.69574 12.8841 5.12253C12.6099 5.69779 12.3127 6.4485 12.3127 7.0009C12.3127 7.57986 12.6391 8.37666 12.9235 8.96098C13.1186 9.36195 12.9251 9.86932 12.517 10.0483C11.9381 10.3022 11.1683 10.7111 10.605 11.2751C10.0932 11.7874 9.75181 12.4278 9.5383 12.9404C9.35886 13.3712 8.8226 13.5971 8.4022 13.3952C7.82514 13.1181 7.06444 12.8138 6.50637 12.8138C5.92975 12.8138 5.13704 13.1385 4.55392 13.4225C4.15163 13.6185 3.62615 13.4271 3.43034 13.0244C3.17494 12.4992 2.77715 11.8158 2.23698 11.2751C1.68655 10.724 0.988288 10.321 0.45985 10.066C0.0661915 9.87597 -0.115062 9.37835 0.0772716 8.9855C0.364357 8.39911 0.699998 7.588 0.699998 7.0009C0.699998 6.44221 0.396053 5.68066 0.119243 5.10294C-0.0824128 4.68208 0.143154 4.14522 0.5735 3.96557C1.08556 3.75182 1.72518 3.41007 2.23698 2.89769C2.80029 2.33375 3.20876 1.56313 3.46238 0.983507C3.64116 0.574959 4.14796 0.38123 4.54848 0.576582C5.13215 0.861261 5.92806 1.18802 6.50637 1.18802C7.05815 1.18802 7.80803 0.890554 8.38264 0.615993ZM9.42292 4.74968C9.23555 4.55438 8.93178 4.55438 8.74442 4.74968L5.48195 8.1575L4.23454 6.85723C4.04717 6.66193 3.7434 6.66193 3.55604 6.85723C3.36867 7.05253 3.36867 7.36918 3.55604 7.56449L5.18045 9.25773C5.28095 9.35775 5.53953 9.49778 5.76982 9.25773L9.42292 5.44983C9.61028 5.25453 9.61028 4.94498 9.42292 4.74968Z"
          fill="#4B91CA"/>
</svg>
